# xmcd
#
# Track frame offsets: 
#        150
#        21055
#        45847
#        68658
#        93027
#        120127
#        145263
#        167221
#        186568
#        207325
#        233398
#        251074
#        271666
#        300698
#
# Disc length: 4443 seconds
#
# Revision: 0
# Processed by: cddbd v1.5.2PL0 Copyright (c) Steve Scherf et al.
# Submitted via: ExactAudioCopyFreeDBPlugin 1.0
#
DISCID=ad11590e
DTITLE=Quang Linh - The best of 
DYEAR=1900
DGENRE=
TTITLE0=Ban toi
TTITLE1=Xin dung trach da da
TTITLE2=Thuyen hoa
TTITLE3=Thuong ve mine trung
TTITLE4=Em toi
TTITLE5=Em ve voi nguoi
TTITLE6=Moi tinh que
TTITLE7=O hai dau noi nho
TTITLE8=Co nhung chieu rat la
TTITLE9=Ve day em
TTITLE10=Doi ca si
TTITLE11=Dang do
TTITLE12=Ai ra xu hue
TTITLE13=Em co vui khi mua xuan den
EXTD=
EXTT0=
EXTT1=
EXTT2=
EXTT3=
EXTT4=
EXTT5=
EXTT6=
EXTT7=
EXTT8=
EXTT9=
EXTT10=
EXTT11=
EXTT12=
EXTT13=
PLAYORDER=
